<svg width="19" height="18" viewBox="0 0 19 18" fill="none" xmlns="http://www.w3.org/2000/svg">
<path fill-rule="evenodd" clip-rule="evenodd" d="M18.3148 5.6159C18.2999 4.8468 18.1538 4.08588 17.8828 3.36594C17.6315 2.71081 17.2453 2.11586 16.7491 1.6197C16.253 1.12354 15.658 0.737282 15.0029 0.485991C14.2829 0.215006 13.522 0.0689097 12.7529 0.053999C11.8799 0 11.5919 0 9.36898 0C7.14602 0 6.85803 0 5.98504 0.053999C5.21594 0.0689097 4.45502 0.215006 3.73508 0.485991C3.07995 0.737282 2.485 1.12354 1.98884 1.6197C1.49268 2.11586 1.10642 2.71081 0.855132 3.36594C0.584146 4.08588 0.43805 4.8468 0.42314 5.6159C0.369141 6.49789 0.369141 6.78588 0.369141 8.99984C0.369141 11.2138 0.369141 11.5018 0.42314 12.3838C0.43805 13.1529 0.584146 13.9138 0.855132 14.6337C1.10642 15.2889 1.49268 15.8838 1.98884 16.38C2.485 16.8761 3.07995 17.2624 3.73508 17.5137C4.45502 17.7847 5.21594 17.9308 5.98504 17.9457C6.33498 17.9457 6.58831 17.9539 6.89794 17.9638H6.89801C7.38468 17.9795 8.01044 17.9997 9.36898 17.9997C11.5919 17.9997 11.8799 17.9997 12.7529 17.9457C13.522 17.9308 14.2829 17.7847 15.0029 17.5137C15.658 17.2624 16.253 16.8761 16.7491 16.38C17.2453 15.8838 17.6315 15.2889 17.8828 14.6337C18.1538 13.9138 18.2999 13.1529 18.3148 12.3838C18.3148 12.0334 18.323 11.7785 18.333 11.4673L18.333 11.4672C18.3487 10.9789 18.3688 10.3518 18.3688 8.99984C18.3688 6.78588 18.3688 6.49789 18.3148 5.6159ZM9.36906 11.6998C10.8602 11.6998 12.069 10.491 12.069 8.99984C12.069 7.5087 10.8602 6.29989 9.36906 6.29989C7.87792 6.29989 6.66911 7.5087 6.66911 8.99984C6.66911 10.491 7.87792 11.6998 9.36906 11.6998ZM9.36906 13.4998C11.8543 13.4998 13.869 11.4851 13.869 8.99984C13.869 6.5146 11.8543 4.49992 9.36906 4.49992C6.88382 4.49992 4.86914 6.5146 4.86914 8.99984C4.86914 11.4851 6.88382 13.4998 9.36906 13.4998ZM13.8693 5.40012C14.3663 5.40012 14.7692 4.99719 14.7692 4.50014C14.7692 4.00309 14.3663 3.60016 13.8693 3.60016C13.3722 3.60016 12.9693 4.00309 12.9693 4.50014C12.9693 4.99719 13.3722 5.40012 13.8693 5.40012Z" fill="#565656"/>
</svg>
