<svg width="19" height="18" viewBox="0 0 19 18" fill="none" xmlns="http://www.w3.org/2000/svg">
<path d="M17.1908 0.000125846H1.94505C1.77367 -0.00225428 1.60351 0.0291482 1.44427 0.09254C1.28503 0.155932 1.13984 0.250071 1.01698 0.369581C0.894129 0.489092 0.796021 0.631633 0.728262 0.789063C0.660502 0.946494 0.624418 1.11573 0.62207 1.28711V16.7129C0.624418 16.8843 0.660502 17.0535 0.728262 17.2109C0.796021 17.3684 0.894129 17.5109 1.01698 17.6304C1.13984 17.7499 1.28503 17.8441 1.44427 17.9075C1.60351 17.9708 1.77367 18.0023 1.94505 17.9999H17.1908C17.3622 18.0023 17.5324 17.9708 17.6916 17.9075C17.8509 17.8441 17.9961 17.7499 18.1189 17.6304C18.2418 17.5109 18.3399 17.3684 18.4076 17.2109C18.4754 17.0535 18.5115 16.8843 18.5138 16.7129V1.28711C18.5115 1.11573 18.4754 0.946494 18.4076 0.789063C18.3399 0.631633 18.2418 0.489092 18.1189 0.369581C17.9961 0.250071 17.8509 0.155932 17.6916 0.09254C17.5324 0.0291482 17.3622 -0.00225428 17.1908 0.000125846ZM6.04899 15.0659H3.34903V6.96603H6.04899V15.0659ZM4.69901 5.83204C4.32665 5.83204 3.96955 5.68412 3.70625 5.42083C3.44295 5.15753 3.29503 4.80042 3.29503 4.42806C3.29503 4.05571 3.44295 3.6986 3.70625 3.4353C3.96955 3.172 4.32665 3.02408 4.69901 3.02408C4.89674 3.00166 5.09697 3.02125 5.28659 3.08158C5.47622 3.1419 5.65097 3.2416 5.79939 3.37414C5.94781 3.50669 6.06657 3.66909 6.14788 3.85071C6.22919 4.03233 6.27122 4.22907 6.27122 4.42806C6.27122 4.62705 6.22919 4.8238 6.14788 5.00542C6.06657 5.18704 5.94781 5.34944 5.79939 5.48198C5.65097 5.61453 5.47622 5.71422 5.28659 5.77455C5.09697 5.83488 4.89674 5.85447 4.69901 5.83204ZM15.7869 15.0659H13.0869V10.719C13.0869 9.62999 12.6999 8.919 11.7189 8.919C11.4153 8.92122 11.1197 9.01645 10.8719 9.19185C10.6241 9.36725 10.436 9.6144 10.3329 9.89999C10.2625 10.1115 10.232 10.3343 10.2429 10.557V15.0569H7.54297C7.54297 15.0569 7.54297 7.69502 7.54297 6.95703H10.2429V8.10001C10.4882 7.67441 10.8449 7.32379 11.2747 7.08591C11.7045 6.84803 12.191 6.7319 12.6819 6.75003C14.4819 6.75003 15.7869 7.91102 15.7869 10.404V15.0659Z" fill="#565656"/>
</svg>
