<svg width="23" height="18" viewBox="0 0 23 18" fill="none" xmlns="http://www.w3.org/2000/svg">
<path d="M7.2132 17.9997C15.5711 17.9997 20.1417 11.0753 20.1417 5.07116C20.1417 4.87443 20.1377 4.6787 20.1286 4.48374C21.0158 3.84241 21.7871 3.04189 22.3954 2.13103C21.5813 2.49276 20.7052 2.73634 19.7861 2.84617C20.7241 2.28368 21.4445 1.39348 21.7843 0.332502C20.9062 0.853169 19.9339 1.23152 18.8991 1.43555C18.0696 0.552406 16.8888 0 15.5822 0C13.0725 0 11.0375 2.03506 11.0375 4.54344C11.0375 4.90012 11.0775 5.24673 11.1551 5.57948C7.37895 5.3898 4.03025 3.58145 1.78939 0.832262C1.3987 1.50356 1.17376 2.28393 1.17376 3.11595C1.17376 4.69231 1.97605 6.08403 3.19598 6.89841C2.45062 6.87548 1.75035 6.67044 1.13799 6.32988C1.13699 6.34877 1.13699 6.36791 1.13699 6.38781C1.13699 8.58862 2.70352 10.4259 4.78241 10.8423C4.40079 10.9464 3.99927 11.0023 3.58465 11.0023C3.29195 11.0023 3.00731 10.9731 2.73047 10.9204C3.30883 12.7255 4.98645 14.0394 6.97541 14.0764C5.41996 15.2953 3.46072 16.0216 1.33195 16.0216C0.965445 16.0216 0.603723 16.0006 0.248047 15.9586C2.25893 17.2473 4.64664 17.9997 7.2132 17.9997Z" fill="#565656"/>
</svg>
