<svg width="26" height="18" viewBox="0 0 26 18" fill="none" xmlns="http://www.w3.org/2000/svg">
<path d="M25.8166 6.24105C25.8732 4.60245 25.5149 2.97612 24.7749 1.51305C24.2728 0.912723 23.576 0.507594 22.8058 0.368261C19.6205 0.0792294 16.4219 -0.039235 13.2239 0.0133749C10.0375 -0.0416228 6.85051 0.0730189 3.67634 0.356813C3.04878 0.470968 2.46803 0.765323 2.00494 1.20396C0.974624 2.15414 0.860145 3.77974 0.745665 5.1535C0.57957 7.62346 0.57957 10.1018 0.745665 12.5718C0.778785 13.345 0.893909 14.1125 1.0891 14.8613C1.22714 15.4395 1.50641 15.9745 1.90191 16.4183C2.36814 16.8801 2.96243 17.1912 3.60765 17.3112C6.07573 17.6158 8.56256 17.7421 11.0488 17.689C15.0556 17.7462 18.5701 17.689 22.7257 17.3684C23.3868 17.2558 23.9978 16.9443 24.4772 16.4755C24.7977 16.1549 25.0371 15.7624 25.1756 15.3307C25.585 14.0744 25.7861 12.7596 25.7708 11.4384C25.8166 10.7973 25.8166 6.92793 25.8166 6.24105ZM10.6367 12.1253V5.03902L17.4139 8.59932C15.5135 9.65253 13.0064 10.8431 10.6367 12.1253Z" fill="#565656"/>
</svg>
